<svg width="28" height="28" xmlns="http://www.w3.org/2000/svg" fill="none">
 <defs>
  <clipPath id="clip0_503_3830">
   <rect id="svg_1" fill="white" rx="2" height="20" width="28"/>
  </clipPath>
 </defs>
 <g>
  <title>Layer 1</title>
  <rect y="3.9356" x="0.35778" stroke="null" id="svg_3" fill="#19bfbf" rx="2" height="20" width="28"/>
  <mask stroke="null" fill="#19bfbf" height="20" width="28" y="0" x="0" maskUnits="userSpaceOnUse" id="mask0_503_3830">
   <rect stroke="null" id="svg_4" fill="#19bfbf" rx="2" height="20" width="28"/>
  </mask>
  <path stroke="null" id="svg_7" fill="#19bfbf" d="m17.36604,22.05768l-1.042,-1.042c-0.0366,-0.0366 -0.0642,-0.0812 -0.0806,-0.1303l-0.5658,-1.6976c-0.0454,-0.136 -0.1726,-0.2277 -0.316,-0.2277c-0.2167,0 -0.3757,0.2036 -0.3231,0.4138l0.5174,2.0697c0.0284,0.1136 -0.0049,0.2338 -0.0877,0.3166l-0.2975,0.2975c-0.1302,0.1302 -0.3412,0.1302 -0.4714,0l-0.3333,-0.3333c-0.0626,-0.0626 -0.0977,-0.1473 -0.0977,-0.2357l0,-1.1166c0,-0.0518 -0.012,-0.1028 -0.0352,-0.1491l-0.5393,-1.0787c-0.0565,-0.1129 -0.1719,-0.1842 -0.2982,-0.1842l-1.7153,0c-0.0517,0 -0.1027,0.012 -0.149,0.0351l-1.1395,0.5698c-0.0791,0.0395 -0.13919,0.1088 -0.16714,0.1927l-0.57934,1.738c-0.02796,0.0839 -0.08809,0.1532 -0.16716,0.1928l-1.06077,0.5304c-0.09384,0.0469 -0.2043,0.0469 -0.29814,0l-1,-0.5c-0.11293,-0.0565 -0.18426,-0.1719 -0.18426,-0.2982l0,-2.1273c0,-0.1841 0.14924,-0.3333 0.33333,-0.3333l1.33333,0c0.1841,0 0.33334,-0.1493 0.33334,-0.3334l0,-0.9459c0,-0.0358 0.00577,-0.0714 0.0171,-0.1054l0.57359,-1.7208c0.04537,-0.1361 0.17275,-0.2279 0.31623,-0.2279l1.01439,0c0.0517,0 0.1028,-0.012 0.1491,-0.0352l1.1925,-0.5963c0.0463,-0.0231 0.0974,-0.0351 0.1491,-0.0351l0.9213,0c0.1841,0 0.3334,-0.1493 0.3334,-0.3334l0,-0.1952c0,-0.0884 0.0351,-0.17323 0.0976,-0.23574l0.242,-0.24202c0.1609,-0.16088 0.4321,-0.11687 0.5338,0.08663l0.3678,0.73543c0.0564,0.1129 0.1718,0.1843 0.2981,0.1843l1.5537,0c0.1435,0 0.2709,-0.0919 0.3163,-0.228l0.5147,-1.54412c0.0454,-0.13611 0.1727,-0.22792 0.3162,-0.22792l0.7598,0c0.184,0 0.3333,-0.14924 0.3333,-0.33334c0,-0.18409 -0.1493,-0.33333 -0.3333,-0.33333l-0.6667,0c-0.1841,0 -0.3333,-0.14924 -0.3333,-0.33333l0,-0.92131c0,-0.05175 0.012,-0.10279 0.0351,-0.14908l0.5241,-1.04806c0.0641,-0.12833 0.039,-0.28332 -0.0625,-0.38477l-0.261,-0.26108c-0.1302,-0.13018 -0.3413,-0.13018 -0.4714,0l-1,1c-0.0626,0.06251 -0.0977,0.1473 -0.0977,0.2357l0,1.14117c0,0.03583 -0.0058,0.07142 -0.0171,0.10541l-0.5736,1.72076c-0.0453,0.13611 -0.1727,0.22792 -0.3162,0.22792l-0.2883,0c-0.0884,0 -0.1732,-0.03512 -0.2357,-0.09763l-0.473,-0.47295c-0.0615,-0.06152 -0.0961,-0.14496 -0.0961,-0.23196c0,-0.24387 -0.2566,-0.40247 -0.4747,-0.29342l-0.6437,0.32185c-0.1284,0.06417 -0.2833,0.03902 -0.3848,-0.06244l-0.3991,-0.39915c-0.0626,-0.06251 -0.0977,-0.1473 -0.0977,-0.2357l0,-1.05719c0,-0.08841 0.0351,-0.17319 0.0977,-0.2357l1.2357,-1.23571l1.9443,-1.94436c0.0366,-0.03659 0.0812,-0.06416 0.1303,-0.08052l1.874,-0.62468c0.034,-0.01133 0.0696,-0.0171 0.1054,-0.0171l1.0733,0c0.1262,0 0.2417,0.07133 0.2981,0.18426l0.5394,1.07869c0.0231,0.04628 0.0352,0.09732 0.0352,0.14907l0,1.78324c0,0.0884 0.0351,0.17319 0.0976,0.2357l0.4233,0.42336c0.0893,0.08928 0.1205,0.22134 0.0806,0.34112l-0.521,1.56302c-0.0476,0.14261 0.0062,0.29938 0.1313,0.38276l1.7882,1.19211l0.9956,0.49781c0.1793,0.0897 0.2395,0.3162 0.1282,0.483l-1.0679,1.6019c-0.0365,0.0547 -0.0559,0.1191 -0.0559,0.1849l0,1.6588c0,0.1435 -0.0919,0.2709 -0.228,0.3162l-1.6411,0.5471c-0.0838,0.0279 -0.1532,0.088 -0.1927,0.1671l-0.5807,1.1615c-0.016,0.032 -0.0371,0.0613 -0.0625,0.0866l-1.0593,1.0594c-0.1302,0.1302 -0.3413,0.1302 -0.4714,0zm-5.7643,-0.431c0.3681,0 0.6666,-0.2985 0.6666,-0.6666c0,-0.3682 -0.2985,-0.6667 -0.6666,-0.6667c-0.3682,0 -0.6667,0.2985 -0.6667,0.6667c0,0.3681 0.2985,0.6666 0.6667,0.6666zm-2.00005,-8.66664c0,0.36819 -0.29847,0.66666 -0.66666,0.66666c-0.36819,0 -0.66667,-0.29847 -0.66667,-0.66666c0,-0.36819 0.29848,-0.66667 0.66667,-0.66667c0.36819,0 0.66666,0.29848 0.66666,0.66667z" clip-rule="evenodd" fill-rule="evenodd"/>
  <path stroke="null" id="svg_8" fill="#19bfbf" d="m10.23313,13.03042c0.02314,-0.04629 0.03519,-0.09732 0.03519,-0.14907l0,-0.50929c0,-0.05175 -0.01205,-0.10279 -0.03519,-0.14907l-0.39027,-0.78055c-0.11082,-0.22163 0.05034,-0.4824 0.29814,-0.4824l0.46064,0c0.1841,0 0.3333,0.14923 0.3333,0.33333l0,1.58798c0,0.05175 0.0121,0.10278 0.0352,0.14907l0.3903,0.78054c0.1108,0.22164 -0.0503,0.48241 -0.2981,0.48241l-0.92134,0c-0.2478,0 -0.40896,-0.26077 -0.29814,-0.4824l0.39027,-0.78055z" clip-rule="evenodd" fill-rule="evenodd"/>
  <g stroke="null">
   <g stroke="null" stroke-width="0" id="svg_18"/>
   <g stroke="#CCCCCC" stroke-width="0.096" stroke-linejoin="round" stroke-linecap="round" id="svg_17"/>
   <g stroke="null" id="svg_16">
    <path stroke="null" fill="#ffffff" d="m5.25559,20.1097c-0.08504,0.13918 0.01511,0.31773 0.17818,0.31773l17.58002,0c0.15077,0 0.25185,-0.15495 0.19118,-0.29288l-5.41364,-12.30358c-0.07445,-0.1694 -0.31627,-0.1653 -0.38497,0.00655l-2.34179,5.85439c-0.02767,0.06923 -0.01639,0.14795 0.02965,0.20663l1.75164,2.22934c0.35626,0.45347 0.27753,1.10981 -0.17594,1.46607c-0.45347,0.35626 -1.10981,0.27753 -1.46607,-0.17594l-4.48498,-5.70809c-0.08994,-0.11444 -0.26647,-0.1041 -0.34239,0.02015l-5.1209,8.37962z" clip-rule="evenodd" fill-rule="evenodd"/>
    <path stroke="null" fill="#ffffff" d="m16.84587,16.12789l0.41055,-0.32253l0,0l-0.41055,0.32253zm-0.17594,1.46607l-0.32253,-0.41045l0,0l0.32253,0.41045zm-1.46607,-0.17594l0.41045,-0.32253l0,0l-0.41045,0.32253zm-0.13929,-3.72611l-0.48469,-0.1939l0.48469,0.1939zm0.02965,0.20663l-0.41045,0.32253l0.41045,-0.32253zm-4.37534,-2.18862l0.41051,-0.32255l-0.41051,0.32255zm-0.34239,0.02015l-0.44547,-0.27227l0.44547,0.27227zm7.41485,-3.89911l0.4779,-0.21026l-0.4779,0.21026zm-0.38497,0.00655l0.48469,0.1939l-0.48469,-0.1939zm-12.15077,12.27218l-0.44548,-0.27221l0.44548,0.27221zm17.94939,0.02485l-0.4779,0.21018l0.4779,-0.21018zm-0.19118,0.81495l-17.58002,0l0,-1.04414l17.58002,0l0,1.04414zm-4.74456,-13.32879l5.41354,12.30355l-0.9557,0.42047l-5.41354,-12.30351l0.9557,-0.42052zm-3.68935,5.8773l2.34169,-5.85438l0.96948,0.38778l-2.34179,5.85439l-0.96938,-0.38779zm0.9249,0.078l1.75164,2.22934l-0.82101,0.64507l-1.75164,-2.22934l0.82101,-0.64507zm1.75164,2.22934c0.53439,0.68015 0.41619,1.66477 -0.26396,2.19916l-0.64507,-0.82101c0.22668,-0.17813 0.26615,-0.50641 0.08802,-0.73309l0.82101,-0.64507zm-0.26396,2.19916c-0.68015,0.53439 -1.66477,0.41619 -2.19916,-0.26396l0.82101,-0.64507c0.17813,0.22668 0.50641,0.26615 0.73309,0.08802l0.64507,0.82101zm-2.19916,-0.26396l-4.48492,-5.70809l0.82102,-0.64509l4.48491,5.70811l-0.82101,0.64507zm-9.98319,2.09694l5.12091,-8.37968l0.89095,0.54448l-5.12091,8.37962l-0.89095,-0.54441zm10.73915,-5.95169c0.04156,-0.10379 0.02464,-0.22188 -0.04448,-0.3098l-0.82101,0.64507c-0.16121,-0.20517 -0.20079,-0.48072 -0.10389,-0.72307l0.96938,0.38779zm-5.24088,-1.85334c0.13491,0.17176 0.39972,0.1561 0.51359,-0.03018l-0.89095,-0.54448c0.2657,-0.43479 0.88357,-0.4711 1.19838,-0.07044l-0.82102,0.64509zm7.00516,-3.99124c0.11183,0.25411 0.47446,0.24795 0.57751,-0.00981l-0.96948,-0.38778c0.24067,-0.60145 1.08674,-0.61583 1.34767,-0.02292l-0.9557,0.42052zm-11.87977,12.90827c-0.57078,0 -0.92129,-0.62502 -0.62366,-1.11201l0.89095,0.54441c0.12755,-0.20872 -0.02267,-0.47654 -0.26729,-0.47654l0,1.04414zm17.58002,-1.04414c-0.22616,0 -0.37777,0.23232 -0.28672,0.43937l0.9557,-0.42047c0.21259,0.48302 -0.14127,1.02524 -0.66898,1.02524l0,-1.04414z"/>
   </g>
  </g>
 </g>
</svg>